<svg xmlns="http://www.w3.org/2000/svg" x="0px" y="0px"
width="150" height="150"
viewBox="0,0,256,256"
style="fill:#000000;">
<g fill-opacity="0.96863" fill="#1a6dd7" fill-rule="nonzero" stroke="none" stroke-width="1" stroke-linecap="butt" stroke-linejoin="miter" stroke-miterlimit="10" stroke-dasharray="" stroke-dashoffset="0" font-family="none" font-weight="none" font-size="none" text-anchor="none" style="mix-blend-mode: normal"><g transform="scale(5.12,5.12)"><path d="M1,14c-0.55226,0.00006 -0.99994,0.44774 -1,1v21c0.00006,0.55226 0.44774,0.99994 1,1h48c0.55226,-0.00006 0.99994,-0.44774 1,-1v-21c-0.00006,-0.55226 -0.44774,-0.99994 -1,-1zM2,16h46v19h-46zM15.67578,18l-2.06641,13.78516v-13.7832h-3.43555l-1.24023,7.74414l-1.20703,-7.74219h-3.4375v14.98633h2.70703v-7.22461l1.23047,7.22461h1.43945l1.21484,-7.22461v7.22461h5.21875l0.31836,-2.30664h2.09961l0.31641,2.30664l5.12305,0.00195h0.00586v-0.00195h0.00195h0.00391v-4.86523l0.62695,-0.0918l1.30078,4.95898h0.00391h2.64453h0.00195v-0.00195h0.00391h0.00391l-1.70703,-5.8125c0.865,-0.64 1.84008,-2.26436 1.58008,-3.81836c0.00363,0.02478 1.61133,9.64063 1.61133,9.64063l3.15234,-0.00977l2.1543,-13.58594v13.58594h5.10938v-2.69531h-2.42578v-3.4375h2.42578v-2.73828h-2.42578v-3.38477h2.42578v-2.73242h-7.60156l-1.25,9.12891l-1.23828,-9.12891h-2.74219l0.30859,2.43555c-0.317,-0.624 -1.43916,-2.43555 -3.91016,-2.43555c-0.016,-0.001 -2.74609,0 -2.74609,0l-0.01172,13.30469l-1.99805,-13.30469zM40.92578,18v14.98633h4.98438v-2.69336h-2.30078v-12.29297zM23.98047,20.67773c0.212,-0.001 1.79297,0.06377 1.79297,2.38477c0,1.214 -0.53697,1.97916 -1.16797,2.28516c-0.208,0.101 -0.42572,0.15234 -0.63672,0.15234v-4.82031c0.004,0 0.00672,-0.00195 0.01172,-0.00195zM17.47852,21.90039l0.77344,6.40625h-1.51562z"></path></g></g>
</svg>